<mxfile host="app.diagrams.net" modified="2022-03-14T01:55:54.049Z" agent="5.0 (X11; Linux x86_64) AppleWebKit/537.36 (KHTML, like Gecko) Chrome/98.0.4758.102 Safari/537.36" etag="wDHZMuPZMlryFFKsEtOg" version="17.1.1" type="github">
  <diagram id="J7Ms8tqogRMePtbN5Oq9" name="Page-1">
    <mxGraphModel dx="1590" dy="712" grid="1" gridSize="10" guides="1" tooltips="1" connect="1" arrows="1" fold="1" page="1" pageScale="1" pageWidth="1169" pageHeight="827" math="0" shadow="0">
      <root>
        <mxCell id="0" />
        <mxCell id="1" parent="0" />
        <mxCell id="fIlT44yx9Q6Wjh4T1rCc-1" value="" style="rounded=0;whiteSpace=wrap;html=1;fillColor=#FFE6CC;" parent="1" vertex="1">
          <mxGeometry x="479" y="52" width="450" height="568" as="geometry" />
        </mxCell>
        <mxCell id="fIlT44yx9Q6Wjh4T1rCc-5" value="" style="edgeStyle=orthogonalEdgeStyle;rounded=0;orthogonalLoop=1;jettySize=auto;html=1;" parent="1" source="fIlT44yx9Q6Wjh4T1rCc-3" target="fIlT44yx9Q6Wjh4T1rCc-4" edge="1">
          <mxGeometry relative="1" as="geometry" />
        </mxCell>
        <mxCell id="fIlT44yx9Q6Wjh4T1rCc-3" value="Get&amp;nbsp; rootSchema" style="rounded=0;whiteSpace=wrap;html=1;fillColor=#FFCCFF;shadow=1;" parent="1" vertex="1">
          <mxGeometry x="500" y="132" width="140" height="30" as="geometry" />
        </mxCell>
        <mxCell id="fIlT44yx9Q6Wjh4T1rCc-17" value="" style="edgeStyle=orthogonalEdgeStyle;rounded=0;orthogonalLoop=1;jettySize=auto;html=1;" parent="1" source="fIlT44yx9Q6Wjh4T1rCc-4" target="fIlT44yx9Q6Wjh4T1rCc-16" edge="1">
          <mxGeometry relative="1" as="geometry" />
        </mxCell>
        <mxCell id="fIlT44yx9Q6Wjh4T1rCc-29" value="NO" style="edgeLabel;html=1;align=center;verticalAlign=middle;resizable=0;points=[];" parent="fIlT44yx9Q6Wjh4T1rCc-17" vertex="1" connectable="0">
          <mxGeometry x="0.1812" relative="1" as="geometry">
            <mxPoint x="-8" as="offset" />
          </mxGeometry>
        </mxCell>
        <mxCell id="fIlT44yx9Q6Wjh4T1rCc-20" value="" style="edgeStyle=orthogonalEdgeStyle;rounded=0;orthogonalLoop=1;jettySize=auto;html=1;" parent="1" source="fIlT44yx9Q6Wjh4T1rCc-4" target="fIlT44yx9Q6Wjh4T1rCc-6" edge="1">
          <mxGeometry relative="1" as="geometry" />
        </mxCell>
        <mxCell id="fIlT44yx9Q6Wjh4T1rCc-28" value="YES" style="edgeLabel;html=1;align=center;verticalAlign=middle;resizable=0;points=[];" parent="fIlT44yx9Q6Wjh4T1rCc-20" vertex="1" connectable="0">
          <mxGeometry x="-0.1665" y="-1" relative="1" as="geometry">
            <mxPoint as="offset" />
          </mxGeometry>
        </mxCell>
        <mxCell id="fIlT44yx9Q6Wjh4T1rCc-4" value="是否存在SubSchema" style="rhombus;whiteSpace=wrap;html=1;fillColor=#CCE5FF;rounded=0;shadow=1;" parent="1" vertex="1">
          <mxGeometry x="510.75" y="194" width="117.5" height="85" as="geometry" />
        </mxCell>
        <mxCell id="fIlT44yx9Q6Wjh4T1rCc-13" value="" style="edgeStyle=orthogonalEdgeStyle;rounded=0;orthogonalLoop=1;jettySize=auto;html=1;entryX=0.5;entryY=0;entryDx=0;entryDy=0;" parent="1" source="fIlT44yx9Q6Wjh4T1rCc-6" target="fIlT44yx9Q6Wjh4T1rCc-8" edge="1">
          <mxGeometry relative="1" as="geometry" />
        </mxCell>
        <mxCell id="fIlT44yx9Q6Wjh4T1rCc-6" value="获取全局NextDatabseID" style="whiteSpace=wrap;html=1;fillColor=#FFCCFF;rounded=0;shadow=1;" parent="1" vertex="1">
          <mxGeometry x="500" y="314" width="140" height="40" as="geometry" />
        </mxCell>
        <mxCell id="fIlT44yx9Q6Wjh4T1rCc-15" value="" style="edgeStyle=orthogonalEdgeStyle;rounded=0;orthogonalLoop=1;jettySize=auto;html=1;" parent="1" source="fIlT44yx9Q6Wjh4T1rCc-8" target="fIlT44yx9Q6Wjh4T1rCc-9" edge="1">
          <mxGeometry relative="1" as="geometry" />
        </mxCell>
        <mxCell id="fIlT44yx9Q6Wjh4T1rCc-8" value="更新全局dbID&lt;br&gt;绑定全局dbID&lt;br&gt;更新新创建的dbName" style="whiteSpace=wrap;html=1;fillColor=#FFCCFF;rounded=0;shadow=1;" parent="1" vertex="1">
          <mxGeometry x="500" y="388.5" width="139.75" height="50" as="geometry" />
        </mxCell>
        <mxCell id="fIlT44yx9Q6Wjh4T1rCc-21" value="" style="edgeStyle=orthogonalEdgeStyle;rounded=0;orthogonalLoop=1;jettySize=auto;html=1;" parent="1" source="fIlT44yx9Q6Wjh4T1rCc-9" target="fIlT44yx9Q6Wjh4T1rCc-19" edge="1">
          <mxGeometry relative="1" as="geometry" />
        </mxCell>
        <mxCell id="fIlT44yx9Q6Wjh4T1rCc-9" value="更新dbNames元信息&lt;br&gt;更新dbID-dbName Map" style="whiteSpace=wrap;html=1;fillColor=#FFCCFF;rounded=0;shadow=1;" parent="1" vertex="1">
          <mxGeometry x="499.75" y="478" width="140" height="50" as="geometry" />
        </mxCell>
        <mxCell id="fIlT44yx9Q6Wjh4T1rCc-10" value="Exception()" style="whiteSpace=wrap;html=1;fillColor=#FF99CC;rounded=0;shadow=1;" parent="1" vertex="1">
          <mxGeometry x="829" y="217.75" width="80" height="37.5" as="geometry" />
        </mxCell>
        <mxCell id="fIlT44yx9Q6Wjh4T1rCc-18" value="" style="edgeStyle=orthogonalEdgeStyle;rounded=0;orthogonalLoop=1;jettySize=auto;html=1;" parent="1" source="fIlT44yx9Q6Wjh4T1rCc-16" target="fIlT44yx9Q6Wjh4T1rCc-10" edge="1">
          <mxGeometry relative="1" as="geometry" />
        </mxCell>
        <mxCell id="fIlT44yx9Q6Wjh4T1rCc-31" value="NO" style="edgeLabel;html=1;align=center;verticalAlign=middle;resizable=0;points=[];" parent="fIlT44yx9Q6Wjh4T1rCc-18" vertex="1" connectable="0">
          <mxGeometry x="-0.321" relative="1" as="geometry">
            <mxPoint y="1" as="offset" />
          </mxGeometry>
        </mxCell>
        <mxCell id="fIlT44yx9Q6Wjh4T1rCc-16" value="&amp;lt;IF NOT &lt;span style=&quot;white-space: pre&quot;&gt; &lt;/span&gt;EXISTS&amp;gt;" style="rhombus;whiteSpace=wrap;html=1;fillColor=#CCE5FF;rounded=0;shadow=1;" parent="1" vertex="1">
          <mxGeometry x="669" y="194" width="117.5" height="85" as="geometry" />
        </mxCell>
        <mxCell id="fIlT44yx9Q6Wjh4T1rCc-19" value="结束" style="rounded=1;whiteSpace=wrap;html=1;fillColor=#999999;" parent="1" vertex="1">
          <mxGeometry x="519.5" y="560" width="100.5" height="40" as="geometry" />
        </mxCell>
        <mxCell id="fIlT44yx9Q6Wjh4T1rCc-24" value="" style="edgeStyle=orthogonalEdgeStyle;rounded=0;orthogonalLoop=1;jettySize=auto;html=1;" parent="1" source="fIlT44yx9Q6Wjh4T1rCc-22" target="fIlT44yx9Q6Wjh4T1rCc-3" edge="1">
          <mxGeometry relative="1" as="geometry">
            <mxPoint x="570" y="130" as="targetPoint" />
          </mxGeometry>
        </mxCell>
        <mxCell id="fIlT44yx9Q6Wjh4T1rCc-22" value="CREATE DATABASE" style="ellipse;whiteSpace=wrap;html=1;fillColor=#CCFFCC;" parent="1" vertex="1">
          <mxGeometry x="534.38" y="63" width="70.25" height="40" as="geometry" />
        </mxCell>
        <mxCell id="fIlT44yx9Q6Wjh4T1rCc-25" value="" style="edgeStyle=orthogonalEdgeStyle;rounded=0;orthogonalLoop=1;jettySize=auto;html=1;fontSize=6;exitX=0.5;exitY=1;exitDx=0;exitDy=0;entryX=1;entryY=0.5;entryDx=0;entryDy=0;" parent="1" source="fIlT44yx9Q6Wjh4T1rCc-16" target="fIlT44yx9Q6Wjh4T1rCc-19" edge="1">
          <mxGeometry relative="1" as="geometry">
            <mxPoint x="625" y="466" as="sourcePoint" />
            <mxPoint x="434.0000000000002" y="557" as="targetPoint" />
          </mxGeometry>
        </mxCell>
        <mxCell id="fIlT44yx9Q6Wjh4T1rCc-30" value="YES" style="edgeLabel;html=1;align=center;verticalAlign=middle;resizable=0;points=[];" parent="fIlT44yx9Q6Wjh4T1rCc-25" vertex="1" connectable="0">
          <mxGeometry x="-0.3827" y="2" relative="1" as="geometry">
            <mxPoint as="offset" />
          </mxGeometry>
        </mxCell>
      </root>
    </mxGraphModel>
  </diagram>
</mxfile>
